<svg width="2195" height="962" viewBox="0 0 2195 962" fill="none" xmlns="http://www.w3.org/2000/svg">
<g clip-path="url(#clip0_9_124)">
<path d="M322.091 578.107L486.005 437.904L486.765 439.962L323.429 579.671L322.091 578.107Z" fill="#2F2E41"/>
<path d="M499.947 469.635C513.214 469.635 523.969 458.88 523.969 445.612C523.969 432.345 513.214 421.59 499.947 421.59C486.679 421.59 475.924 432.345 475.924 445.612C475.924 458.88 486.679 469.635 499.947 469.635Z" fill="#6C63FF"/>
<path d="M702.416 498.806H483.078C482.138 498.807 481.207 498.623 480.338 498.264C479.469 497.905 478.679 497.378 478.014 496.714C477.349 496.05 476.822 495.261 476.461 494.392C476.101 493.524 475.916 492.593 475.916 491.653C475.916 490.713 476.101 489.782 476.461 488.913C476.822 488.045 477.349 487.256 478.014 486.592C478.679 485.927 479.469 485.4 480.338 485.041C481.207 484.682 482.138 484.498 483.078 484.499H702.416C703.356 484.498 704.287 484.682 705.156 485.041C706.025 485.4 706.815 485.927 707.48 486.592C708.145 487.256 708.672 488.045 709.032 488.913C709.392 489.782 709.578 490.713 709.578 491.653C709.578 492.593 709.392 493.524 709.032 494.392C708.672 495.261 708.145 496.05 707.48 496.714C706.815 497.378 706.025 497.905 705.156 498.264C704.287 498.623 703.356 498.807 702.416 498.806Z" fill="#6C63FF"/>
<path d="M702.416 527.073H483.078C481.181 527.073 479.361 526.319 478.02 524.977C476.678 523.636 475.924 521.816 475.924 519.919C475.924 518.022 476.678 516.202 478.02 514.86C479.361 513.519 481.181 512.765 483.078 512.765H702.416C704.313 512.765 706.133 513.519 707.474 514.86C708.816 516.202 709.57 518.022 709.57 519.919C709.57 521.816 708.816 523.636 707.474 524.977C706.133 526.319 704.313 527.073 702.416 527.073Z" fill="#6C63FF"/>
<path d="M578.156 555.339H483.078C481.181 555.339 479.361 554.585 478.02 553.244C476.678 551.902 475.924 550.082 475.924 548.185C475.924 546.288 476.678 544.468 478.02 543.127C479.361 541.785 481.181 541.031 483.078 541.031H578.156C580.053 541.031 581.873 541.785 583.214 543.127C584.556 544.468 585.309 546.288 585.309 548.185C585.309 550.082 584.556 551.902 583.214 553.244C581.873 554.585 580.053 555.339 578.156 555.339Z" fill="#6C63FF"/>
<path d="M540.434 644.266C549.528 644.266 556.9 636.894 556.9 627.8C556.9 618.707 549.528 611.335 540.434 611.335C531.341 611.335 523.969 618.707 523.969 627.8C523.969 636.894 531.341 644.266 540.434 644.266Z" fill="#E6E7E8"/>
<path d="M679.212 664.26H528.872C528.228 664.261 527.589 664.135 526.994 663.889C526.398 663.643 525.857 663.282 525.401 662.827C524.945 662.371 524.583 661.831 524.336 661.235C524.089 660.64 523.962 660.002 523.962 659.357C523.962 658.713 524.089 658.075 524.336 657.479C524.583 656.884 524.945 656.343 525.401 655.888C525.857 655.432 526.398 655.071 526.994 654.825C527.589 654.579 528.228 654.453 528.872 654.454H679.212C679.856 654.453 680.495 654.579 681.09 654.825C681.686 655.071 682.227 655.432 682.683 655.888C683.14 656.343 683.501 656.884 683.748 657.479C683.995 658.075 684.122 658.713 684.122 659.357C684.122 660.002 683.995 660.64 683.748 661.235C683.501 661.831 683.14 662.371 682.683 662.827C682.227 663.282 681.686 663.643 681.09 663.889C680.495 664.135 679.856 664.261 679.212 664.26Z" fill="#E6E7E8"/>
<path d="M566.212 683.635H528.872C527.573 683.633 526.327 683.116 525.409 682.196C524.491 681.277 523.976 680.031 523.976 678.732C523.976 677.432 524.491 676.186 525.409 675.267C526.327 674.348 527.573 673.83 528.872 673.828H566.212C567.511 673.83 568.757 674.348 569.675 675.267C570.593 676.186 571.108 677.432 571.108 678.732C571.108 680.031 570.593 681.277 569.675 682.196C568.757 683.116 567.511 683.633 566.212 683.635Z" fill="#E6E7E8"/>
<path d="M487.883 808.924C496.977 808.924 504.349 801.552 504.349 792.459C504.349 783.365 496.977 775.993 487.883 775.993C478.79 775.993 471.418 783.365 471.418 792.459C471.418 801.552 478.79 808.924 487.883 808.924Z" fill="#E6E7E8"/>
<path d="M626.661 828.919H476.321C475.677 828.92 475.038 828.794 474.443 828.548C473.847 828.302 473.306 827.941 472.849 827.485C472.393 827.03 472.032 826.489 471.785 825.894C471.538 825.298 471.411 824.66 471.411 824.016C471.411 823.371 471.538 822.733 471.785 822.138C472.032 821.543 472.393 821.002 472.849 820.546C473.306 820.091 473.847 819.73 474.443 819.484C475.038 819.238 475.677 819.112 476.321 819.113H626.661C627.305 819.112 627.944 819.238 628.539 819.484C629.135 819.73 629.676 820.091 630.132 820.546C630.588 821.002 630.95 821.543 631.197 822.138C631.444 822.733 631.571 823.371 631.571 824.016C631.571 824.66 631.444 825.298 631.197 825.894C630.95 826.489 630.588 827.03 630.132 827.485C629.676 827.941 629.135 828.302 628.539 828.548C627.944 828.794 627.305 828.92 626.661 828.919Z" fill="#E6E7E8"/>
<path d="M566.661 848.293H476.321C475.021 848.293 473.773 847.777 472.854 846.857C471.934 845.938 471.418 844.691 471.418 843.39C471.418 842.09 471.934 840.842 472.854 839.923C473.773 839.003 475.021 838.487 476.321 838.487H566.661C567.961 838.487 569.209 839.003 570.128 839.923C571.048 840.842 571.564 842.09 571.564 843.39C571.564 844.691 571.048 845.938 570.128 846.857C569.209 847.777 567.961 848.293 566.661 848.293Z" fill="#E6E7E8"/>
<path d="M541.49 867.668H476.321C475.021 867.668 473.773 867.151 472.854 866.232C471.934 865.312 471.418 864.065 471.418 862.765C471.418 861.464 471.934 860.217 472.854 859.297C473.773 858.378 475.021 857.861 476.321 857.861H541.49C542.79 857.861 544.037 858.378 544.957 859.297C545.876 860.217 546.393 861.464 546.393 862.765C546.393 864.065 545.876 865.312 544.957 866.232C544.037 867.151 542.79 867.668 541.49 867.668Z" fill="#E6E7E8"/>
<path d="M42.5782 922.499C16.8639 910.314 -2.28933 885.799 0.698468 858.857C23.7676 877.537 55.1754 887.968 87.5988 887.719C100.227 887.622 114.371 886.337 123.548 893.423C129.258 897.832 131.834 904.833 132.159 911.811C132.484 918.789 130.793 925.852 129.111 932.822L129.622 934.473C99.4304 936.395 68.2924 934.684 42.5782 922.499Z" fill="#F2F2F2"/>
<path d="M1.3316 858.79C11.2769 878.196 28.5197 894.37 49.9486 903.837C54.6438 906.028 59.6431 907.497 64.7772 908.194C70.0056 908.74 75.2893 908.05 80.2016 906.178C84.8588 904.506 89.4496 902.33 94.3889 901.668C96.8071 901.331 99.2686 901.484 101.626 902.12C103.984 902.755 106.189 903.86 108.11 905.367C112.674 908.917 115.396 913.828 117.863 918.728C120.602 924.168 123.346 929.864 128.71 933.572C129.36 934.021 128.455 934.955 127.806 934.507C118.474 928.056 117.128 916.393 109.713 908.58C106.253 904.935 101.451 902.292 95.6863 902.717C90.6457 903.089 85.9099 905.329 81.2074 907.057C76.4262 908.945 71.2958 909.787 66.1618 909.525C60.9859 909.07 55.9176 907.781 51.1525 905.709C40.7916 901.396 31.2004 895.429 22.754 888.039C13.4224 879.969 5.71902 870.19 0.058174 859.228C-0.285366 858.557 0.990306 858.124 1.3316 858.79Z" fill="white"/>
<path d="M42.7703 901.102C40.0633 904.296 36.4283 906.566 32.371 907.598C28.3136 908.629 24.0357 908.37 20.1323 906.857C19.3839 906.542 19.9951 905.445 20.7445 905.76C24.3762 907.175 28.36 907.416 32.1357 906.449C35.9114 905.482 39.289 903.356 41.7937 900.37C42.3196 899.73 43.2932 900.466 42.7703 901.102Z" fill="white"/>
<path d="M77.94 907.294C77.4419 903.504 76.1467 899.862 74.1397 896.608C72.1326 893.354 69.4592 890.562 66.2955 888.416C65.6476 887.964 66.5524 887.03 67.1995 887.481C70.4869 889.72 73.2623 892.632 75.3428 896.022C77.4234 899.412 78.7617 903.205 79.2698 907.151C79.3618 907.903 78.0315 908.042 77.94 907.294Z" fill="white"/>
<path d="M14.949 879.144C16.1856 878.194 17.1589 876.944 17.7766 875.512C18.3943 874.08 18.6359 872.514 18.4785 870.962C18.3758 870.212 19.7062 870.074 19.8083 870.819C19.9744 872.533 19.7057 874.262 19.0271 875.845C18.3485 877.428 17.2818 878.815 15.9256 879.877C15.8033 879.997 15.6438 880.073 15.4731 880.091C15.3024 880.11 15.1305 880.07 14.9853 879.978C14.9223 879.93 14.8707 879.868 14.8341 879.797C14.7974 879.727 14.7767 879.649 14.7732 879.57C14.7698 879.49 14.7837 879.411 14.8141 879.338C14.8445 879.264 14.8905 879.198 14.949 879.144Z" fill="white"/>
<path d="M85.5378 801.893C85.6171 802.358 85.6964 802.824 85.7857 803.293C86.8859 809.533 88.567 815.656 90.807 821.583C90.9717 822.045 91.1466 822.509 91.3263 822.964C96.9908 837.314 105.605 850.316 116.611 861.128C121.094 865.545 125.93 869.59 131.071 873.222C138.236 878.292 146.506 883.246 151.041 890.078C151.522 890.782 151.952 891.52 152.329 892.285L131.899 933.62C131.802 933.697 131.714 933.778 131.617 933.855L130.883 935.533C130.599 935.361 130.309 935.177 130.025 935.006C129.86 934.907 129.699 934.799 129.534 934.7C129.425 934.631 129.316 934.562 129.213 934.506C129.177 934.483 129.141 934.46 129.115 934.44C129.012 934.384 128.924 934.322 128.831 934.269C127.207 933.246 125.589 932.211 123.977 931.163C123.967 931.16 123.967 931.16 123.961 931.147C111.707 923.135 100.182 914.08 90.7132 903.633C90.4284 903.319 90.1332 903.002 89.8577 902.668C85.6488 897.974 81.8793 892.903 78.5965 887.52C76.8278 884.592 75.2298 881.565 73.8107 878.453C70.1689 870.413 68.011 861.781 67.4413 852.973C66.2874 835.33 71.5211 817.087 84.5326 802.964C84.8657 802.603 85.1945 802.251 85.5378 801.893Z" fill="#F2F2F2"/>
<path d="M86.0603 802.175C80.3697 823.997 82.3304 847.012 91.9654 866.595C93.9693 870.944 96.7298 874.902 100.118 878.285C103.748 881.611 108.21 883.894 113.031 884.891C117.649 885.984 122.56 886.613 126.706 888.715C128.74 889.733 130.504 891.218 131.855 893.049C133.205 894.881 134.102 897.005 134.474 899.25C135.488 904.721 134.202 910.354 132.732 915.84C131.1 921.931 129.299 928.243 130.805 934.279C130.987 935.01 129.677 935.315 129.495 934.584C126.875 924.082 133.763 913.463 133.499 902.839C133.377 897.882 131.57 893.051 126.967 890.304C122.942 887.901 117.879 887.249 113.189 886.179C108.451 885.258 104.01 883.192 100.253 880.161C96.6754 876.968 93.7383 873.123 91.5994 868.832C86.6969 859.376 83.5461 849.111 82.2993 838.533C80.8031 826.26 81.6553 813.814 84.8105 801.86C85.0071 801.106 86.2555 801.426 86.0603 802.175Z" fill="white"/>
<path d="M88.4424 860.405C80.0381 863.038 71.1223 859.888 67.5984 853.081C67.2512 852.41 68.4511 851.81 68.7987 852.481C72.1 858.858 80.3508 861.719 88.207 859.257C89.0338 858.998 89.2645 860.148 88.4424 860.405Z" fill="white"/>
<path d="M110.582 884.618C112.734 881.372 114.203 877.722 114.901 873.89C115.6 870.058 115.512 866.124 114.643 862.328C114.464 861.595 115.774 861.291 115.953 862.022C116.848 865.976 116.931 870.07 116.195 874.057C115.46 878.044 113.922 881.839 111.675 885.214C111.235 885.901 110.144 885.302 110.582 884.618Z" fill="white"/>
<path d="M82.477 826.781C84.1271 826.595 85.7159 826.046 87.13 825.176C88.5441 824.305 89.7488 823.133 90.6583 821.744C91.0889 821.053 92.1787 821.652 91.751 822.339C90.7397 823.87 89.4075 825.163 87.8468 826.129C86.2861 827.094 84.5341 827.708 82.7124 827.929C82.3506 827.972 82.0132 827.845 81.9398 827.508C81.9197 827.341 81.9641 827.173 82.064 827.038C82.1638 826.903 82.3116 826.811 82.477 826.781Z" fill="white"/>
<path d="M146.809 525.199L181.581 562.12L262.512 591.787L272.238 573.72L209.958 540.603C209.958 540.603 181.879 511.267 165.221 505.224L146.809 525.199Z" fill="#A0616A"/>
<path d="M270.912 596.408C277.54 596.408 282.912 591.035 282.912 584.408C282.912 577.781 277.54 572.408 270.912 572.408C264.285 572.408 258.912 577.781 258.912 584.408C258.912 591.035 264.285 596.408 270.912 596.408Z" fill="#A0616A"/>
<path d="M173.791 507.276L148.938 529.22L148.821 529.25C137.266 532.2 120.578 518.571 108.613 506.618C104.671 502.674 102.374 497.38 102.185 491.806C101.997 486.233 103.932 480.796 107.599 476.595C110.326 473.514 113.859 471.257 117.801 470.079C121.742 468.901 125.935 468.849 129.904 469.929L150.105 475.501L173.791 507.276Z" fill="#3F3D56"/>
<path d="M201.586 943.14L218.714 943.139L226.862 877.074L201.583 877.075L201.586 943.14Z" fill="#A0616A"/>
<path d="M197.216 937.548L202.037 937.548L220.86 929.893L230.948 937.546H230.949C236.65 937.547 242.117 939.812 246.149 943.843C250.18 947.874 252.445 953.341 252.445 959.042V959.741L197.217 959.743L197.216 937.548Z" fill="#2F2E41"/>
<path d="M125.586 943.14L142.714 943.139L150.862 877.074L125.583 877.075L125.586 943.14Z" fill="#A0616A"/>
<path d="M121.216 937.548L126.037 937.548L144.86 929.893L154.948 937.546H154.949C160.65 937.547 166.117 939.812 170.149 943.843C174.18 947.874 176.445 953.341 176.445 959.042V959.741L121.217 959.743L121.216 937.548Z" fill="#2F2E41"/>
<path d="M99.4688 658.574C99.4688 658.574 97.4688 682.574 102.469 705.574C107.469 728.574 107.469 793.35 107.469 793.35L118.469 919.574L151.469 916.574L160.469 705.574L192.469 776.574L189.469 786.574L193.465 789.074C193.465 789.074 190.469 808.574 192.469 808.574C194.469 808.574 199.469 811.574 199.469 811.574L195.469 914.574L229.469 913.574L241.469 768.574L228.469 685.574L227.469 669.574L222.969 669.759L220.677 663.074L216.469 651.574L99.4688 658.574Z" fill="#2F2E41"/>
<path d="M97.7404 663.615L97.5621 663.365C88.0436 650.039 102.359 618.016 104.519 613.374L95.4244 610.423L97.4723 593.015L98.4425 585.255L91.4918 578.304L91.4723 578.131L87.4723 543.131L81.6563 519.884C79.465 511.096 79.6517 501.883 82.1974 493.191C84.7431 484.499 89.5561 476.641 96.1422 470.424L109.586 457.748L125.923 433.574H152.27L161.304 450.637C170.062 452.662 177.833 457.694 183.262 464.859C188.691 472.023 191.435 480.865 191.016 489.844L188.968 534.597L196.983 590.318L196.988 600.402L206.008 610.426L204.039 620.274L210.903 623.216L213.935 637.361C215.189 639.016 223.469 650.056 223.469 653.074C223.469 653.527 223.134 653.965 222.417 654.451C216.774 658.272 185.586 666.061 171.783 660.538C157.08 654.659 98.6329 663.478 98.044 663.568L97.7404 663.615Z" fill="#3F3D56"/>
<path d="M313.804 959.382C313.804 959.538 313.774 959.692 313.715 959.836C313.656 959.98 313.569 960.111 313.459 960.222C313.349 960.332 313.219 960.42 313.075 960.48C312.931 960.54 312.777 960.571 312.621 960.572H32.3239C32.0083 960.572 31.7056 960.447 31.4825 960.223C31.2593 960 31.1339 959.697 31.1339 959.382C31.1339 959.066 31.2593 958.764 31.4825 958.54C31.7056 958.317 32.0083 958.192 32.3239 958.192H312.614C312.929 958.191 313.231 958.315 313.454 958.537C313.677 958.759 313.803 959.06 313.804 959.375V959.382Z" fill="#CCCCCC"/>
<path d="M142.5 425.77C161.771 425.77 177.393 410.148 177.393 390.877C177.393 371.607 161.771 355.984 142.5 355.984C123.229 355.984 107.607 371.607 107.607 390.877C107.607 410.148 123.229 425.77 142.5 425.77Z" fill="#A0616A"/>
<path d="M145.843 426.335C140.439 426.28 135.05 425.763 129.734 424.791C124.471 423.578 112.86 414.6 109.695 409.296C107.344 405.355 105.933 399.259 105.163 394.84C104.123 388.991 104.324 382.989 105.751 377.222C107.179 371.456 109.801 366.053 113.449 361.365C114.855 359.401 116.766 357.853 118.98 356.886C119.176 356.815 119.377 356.753 119.58 356.701C122.789 355.945 125.698 354.247 127.935 351.825C128.369 351.335 128.838 350.876 129.338 350.453C131.847 348.444 134.796 347.058 137.943 346.407C143.028 345.186 150.302 346.716 159.563 350.959C164.215 353.091 169.378 352.496 173.358 351.74C173.582 351.703 173.81 351.725 174.023 351.804C174.235 351.882 174.422 352.015 174.567 352.189C176.21 353.813 178.407 354.756 180.716 354.826C182.129 354.925 183.563 356.922 185.291 359.523C185.683 360.113 186.141 360.802 186.473 361.222L186.539 360.433L187.316 361.336C188.538 362.755 189.382 364.46 189.767 366.292C190.153 368.125 190.068 370.025 189.522 371.816C188.975 373.607 187.985 375.231 186.642 376.536C185.299 377.841 183.647 378.785 181.841 379.28C180.409 379.622 178.945 379.817 177.472 379.861C176.58 379.918 175.656 379.977 174.77 380.108C171.921 380.615 169.253 381.852 167.026 383.698C164.798 385.544 163.088 387.936 162.061 390.64C161.818 391.265 161.435 391.826 160.941 392.28C160.448 392.733 159.856 393.067 159.213 393.256C158.57 393.445 157.892 393.483 157.231 393.368C156.571 393.254 155.946 392.988 155.404 392.593C154.503 391.854 153.436 391.343 152.295 391.104C151.154 390.866 149.972 390.907 148.85 391.224C147.874 391.734 147.103 392.564 146.667 393.575C146.139 394.7 145.289 395.642 144.223 396.281C140.59 398.037 140.132 406.219 141.243 413.079C142.314 419.691 144.645 424.514 146.911 424.808C148.655 425.034 148.852 425.163 148.97 425.476L149.076 425.756L148.873 426.01C148.675 426.236 147.52 426.335 145.843 426.335Z" fill="#2F2E41"/>
<path d="M317.016 690.879C351.141 690.879 378.805 663.215 378.805 629.09C378.805 594.965 351.141 567.301 317.016 567.301C282.891 567.301 255.227 594.965 255.227 629.09C255.227 663.215 282.891 690.879 317.016 690.879Z" fill="#6C63FF"/>
<path d="M311.622 653.307C311.488 653.307 311.353 653.304 311.218 653.298C310.033 653.24 308.875 652.927 307.822 652.38C306.769 651.833 305.847 651.064 305.119 650.128L295.381 637.608C294.041 635.883 293.441 633.697 293.712 631.53C293.983 629.363 295.102 627.392 296.824 626.05L297.173 625.778C298.898 624.439 301.085 623.839 303.252 624.109C305.419 624.379 307.391 625.498 308.734 627.22C309.172 627.783 309.725 628.244 310.357 628.572C310.989 628.901 311.685 629.089 312.396 629.123C313.109 629.165 313.821 629.049 314.484 628.783C315.146 628.518 315.741 628.109 316.227 627.587L336 606.714C337.504 605.131 339.574 604.208 341.757 604.149C343.94 604.09 346.057 604.899 347.644 606.399L347.965 606.703C349.549 608.206 350.472 610.277 350.532 612.46C350.591 614.643 349.782 616.761 348.282 618.348L317.599 650.735C316.83 651.548 315.903 652.195 314.875 652.638C313.848 653.08 312.741 653.308 311.622 653.307Z" fill="white"/>
<path d="M153.88 526.482L178.119 571.032L248.846 620.303L262.846 605.303L211.035 557.438C211.035 557.438 191.34 521.926 176.766 511.846L153.88 526.482Z" fill="#A0616A"/>
<path d="M258.846 627.303C265.474 627.303 270.846 621.931 270.846 615.303C270.846 608.676 265.474 603.303 258.846 603.303C252.219 603.303 246.846 608.676 246.846 615.303C246.846 621.931 252.219 627.303 258.846 627.303Z" fill="#A0616A"/>
<path d="M156.062 532.421L140.819 495.838L146.332 475.621C147.429 471.656 149.613 468.077 152.637 465.288C155.661 462.499 159.405 460.611 163.446 459.839C168.93 458.828 174.594 459.937 179.291 462.943C183.989 465.948 187.37 470.625 188.751 476.029C192.926 492.418 196.132 513.725 187.7 522.157L187.614 522.242L156.062 532.421Z" fill="#3F3D56"/>
<path d="M496.026 459.195C495.971 459.195 495.915 459.194 495.86 459.191C495.372 459.167 494.895 459.039 494.462 458.814C494.029 458.588 493.65 458.272 493.35 457.887L489.344 452.737C488.793 452.027 488.546 451.128 488.658 450.236C488.769 449.345 489.229 448.534 489.938 447.982L490.081 447.87C490.791 447.319 491.691 447.072 492.582 447.183C493.474 447.294 494.285 447.755 494.838 448.463C495.018 448.694 495.245 448.884 495.505 449.019C495.765 449.155 496.052 449.232 496.344 449.246C496.637 449.263 496.931 449.215 497.203 449.106C497.475 448.997 497.72 448.829 497.92 448.614L506.055 440.027C506.673 439.376 507.525 438.996 508.423 438.972C509.321 438.948 510.192 439.28 510.845 439.897L510.977 440.022C511.629 440.641 512.009 441.493 512.033 442.391C512.057 443.289 511.725 444.16 511.107 444.813L498.484 458.137C498.168 458.471 497.787 458.738 497.364 458.92C496.941 459.102 496.486 459.195 496.026 459.195Z" fill="white"/>
<path d="M686.963 835.611C694.112 840.464 702.059 845.925 704.363 854.782C704.893 856.674 705.034 858.654 704.779 860.602C704.524 862.55 703.877 864.426 702.879 866.118C701.044 869.176 698.311 871.578 695.644 873.893C692.477 876.644 689.285 879.347 686.827 882.782C685.702 884.354 688.303 885.854 689.418 884.296C693.974 877.929 701.545 874.322 705.554 867.49C710.296 859.409 707.132 849.825 701.255 843.284C697.588 839.201 692.989 836.084 688.477 833.021C686.876 831.934 685.373 834.532 686.963 835.611Z" fill="#E6E7E8"/>
<path d="M711.963 835.611C719.112 840.464 727.059 845.925 729.363 854.782C729.893 856.674 730.034 858.654 729.779 860.602C729.524 862.55 728.877 864.426 727.879 866.118C726.044 869.176 723.311 871.578 720.645 873.893C717.477 876.644 714.285 879.347 711.827 882.782C710.702 884.354 713.303 885.854 714.418 884.296C718.974 877.929 726.545 874.322 730.554 867.49C735.296 859.409 732.132 849.825 726.255 843.284C722.588 839.201 717.989 836.084 713.477 833.021C711.876 831.934 710.373 834.532 711.963 835.611Z" fill="#E6E7E8"/>
<path d="M473.994 615.765C475.584 614.686 474.081 612.088 472.479 613.175C467.967 616.238 463.369 619.355 459.701 623.438C453.825 629.979 450.66 639.563 455.402 647.644C459.412 654.476 466.983 658.083 471.539 664.45C472.654 666.008 475.255 664.508 474.129 662.936C471.672 659.501 468.479 656.798 465.312 654.047C462.646 651.732 459.913 649.33 458.078 646.272C457.079 644.58 456.433 642.704 456.178 640.756C455.923 638.808 456.064 636.828 456.594 634.936C458.898 626.079 466.844 620.618 473.994 615.765Z" fill="#E6E7E8"/>
<path d="M448.994 615.765C450.584 614.686 449.081 612.088 447.479 613.175C442.967 616.238 438.369 619.355 434.701 623.438C428.825 629.979 425.66 639.563 430.402 647.644C434.412 654.476 441.983 658.083 446.539 664.45C447.654 666.008 450.255 664.508 449.129 662.936C446.672 659.501 443.479 656.798 440.312 654.047C437.646 651.732 434.913 649.33 433.078 646.272C432.079 644.58 431.433 642.704 431.178 640.756C430.923 638.808 431.064 636.828 431.594 634.936C433.898 626.079 441.844 620.618 448.994 615.765Z" fill="#E6E7E8"/>
</g>
<g clip-path="url(#clip1_9_124)">
<path d="M2125.55 945.404C2121.83 950.413 2117.23 954.694 2111.96 958.034C2110.84 958.744 2109.69 959.414 2108.52 960.034H2080.99C2081.32 959.374 2081.64 958.704 2081.95 958.034C2090.49 940.022 2093.16 919.788 2089.6 900.175C2086.05 880.563 2076.43 862.559 2062.11 848.694C2078.75 853.834 2094.13 863.854 2104.19 878.064C2109.08 884.984 2112.55 892.8 2114.42 901.064C2116.08 884.536 2113.44 867.859 2106.75 852.654C2120.26 863.644 2130.78 878.694 2134.79 895.634C2138.8 912.584 2135.89 931.394 2125.55 945.404Z" fill="#F0F0F0"/>
<path d="M1559.68 356.473C1558.85 356.474 1558.05 356.805 1557.47 357.392C1556.88 357.979 1556.55 358.775 1556.55 359.605C1556.55 360.434 1556.88 361.23 1557.47 361.817C1558.05 362.404 1558.85 362.735 1559.68 362.736H1788.33C1789.16 362.735 1789.96 362.404 1790.54 361.817C1791.13 361.23 1791.46 360.434 1791.46 359.605C1791.46 358.775 1791.13 357.979 1790.54 357.392C1789.96 356.805 1789.16 356.474 1788.33 356.473H1559.68Z" fill="#6C63FF"/>
<path d="M1559.68 375.263C1558.85 375.262 1558.05 375.59 1557.46 376.176C1556.87 376.762 1556.54 377.558 1556.54 378.389C1556.54 379.219 1556.86 380.016 1557.45 380.605C1558.04 381.194 1558.83 381.525 1559.66 381.527H1704.22C1704.63 381.528 1705.04 381.447 1705.42 381.29C1705.8 381.133 1706.15 380.903 1706.44 380.612C1706.73 380.321 1706.96 379.975 1707.12 379.595C1707.28 379.215 1707.36 378.807 1707.36 378.395C1707.36 377.983 1707.28 377.576 1707.12 377.195C1706.96 376.815 1706.73 376.47 1706.44 376.179C1706.15 375.888 1705.8 375.657 1705.42 375.5C1705.04 375.343 1704.63 375.263 1704.22 375.263H1559.68Z" fill="#6C63FF"/>
<path d="M1559.68 469.473C1558.85 469.474 1558.05 469.805 1557.47 470.392C1556.88 470.979 1556.55 471.775 1556.55 472.605C1556.55 473.434 1556.88 474.23 1557.47 474.817C1558.05 475.404 1558.85 475.735 1559.68 475.736H1788.33C1789.16 475.735 1789.96 475.404 1790.54 474.817C1791.13 474.23 1791.46 473.434 1791.46 472.605C1791.46 471.775 1791.13 470.979 1790.54 470.392C1789.96 469.805 1789.16 469.474 1788.33 469.473H1559.68Z" fill="#E4E4E4"/>
<path d="M1559.68 488.263C1558.85 488.262 1558.05 488.59 1557.46 489.176C1556.87 489.762 1556.54 490.558 1556.54 491.389C1556.54 492.219 1556.86 493.016 1557.45 493.605C1558.04 494.194 1558.83 494.525 1559.66 494.527H1704.22C1704.63 494.528 1705.04 494.447 1705.42 494.29C1705.8 494.133 1706.15 493.903 1706.44 493.612C1706.73 493.321 1706.96 492.975 1707.12 492.595C1707.28 492.215 1707.36 491.807 1707.36 491.395C1707.36 490.983 1707.28 490.576 1707.12 490.195C1706.96 489.815 1706.73 489.47 1706.44 489.179C1706.15 488.888 1705.8 488.657 1705.42 488.5C1705.04 488.343 1704.63 488.263 1704.22 488.263H1559.68Z" fill="#E4E4E4"/>
<path d="M1559.68 582.473C1558.85 582.474 1558.05 582.805 1557.47 583.392C1556.88 583.979 1556.55 584.775 1556.55 585.605C1556.55 586.434 1556.88 587.23 1557.47 587.817C1558.05 588.404 1558.85 588.735 1559.68 588.736H1788.33C1789.16 588.735 1789.96 588.404 1790.54 587.817C1791.13 587.23 1791.46 586.434 1791.46 585.605C1791.46 584.775 1791.13 583.979 1790.54 583.392C1789.96 582.805 1789.16 582.474 1788.33 582.473H1559.68Z" fill="#E4E4E4"/>
<path d="M1559.68 601.263C1558.85 601.262 1558.05 601.59 1557.46 602.176C1556.87 602.762 1556.54 603.558 1556.54 604.389C1556.54 605.219 1556.86 606.016 1557.45 606.605C1558.04 607.194 1558.83 607.525 1559.66 607.527H1704.22C1704.63 607.528 1705.04 607.447 1705.42 607.29C1705.8 607.133 1706.15 606.903 1706.44 606.612C1706.73 606.321 1706.96 605.975 1707.12 605.595C1707.28 605.215 1707.36 604.807 1707.36 604.395C1707.36 603.983 1707.28 603.576 1707.12 603.195C1706.96 602.815 1706.73 602.47 1706.44 602.179C1706.15 601.888 1705.8 601.657 1705.42 601.5C1705.04 601.343 1704.63 601.263 1704.22 601.263H1559.68Z" fill="#E4E4E4"/>
<path d="M1475.78 378.517H1475.77C1475.51 378.516 1475.25 378.459 1475.02 378.351C1474.78 378.244 1474.57 378.087 1474.4 377.892L1464.71 366.755C1464.55 366.574 1464.43 366.365 1464.35 366.138C1464.27 365.911 1464.24 365.671 1464.26 365.433C1464.28 365.194 1464.34 364.96 1464.45 364.746C1464.55 364.531 1464.7 364.34 1464.88 364.183C1465.06 364.026 1465.27 363.906 1465.5 363.829C1465.72 363.753 1465.96 363.723 1466.2 363.739C1466.44 363.756 1466.68 363.82 1466.89 363.927C1467.1 364.034 1467.29 364.182 1467.45 364.363L1475.79 373.942L1500.84 345.845C1501 345.666 1501.19 345.52 1501.41 345.415C1501.62 345.311 1501.85 345.25 1502.09 345.236C1502.33 345.222 1502.57 345.255 1502.8 345.334C1503.02 345.412 1503.23 345.535 1503.41 345.694C1503.59 345.853 1503.74 346.046 1503.84 346.262C1503.94 346.477 1504 346.711 1504.02 346.95C1504.03 347.189 1504 347.429 1503.92 347.654C1503.84 347.88 1503.72 348.089 1503.56 348.267L1477.14 377.908C1476.97 378.1 1476.76 378.253 1476.52 378.358C1476.29 378.463 1476.03 378.517 1475.78 378.517Z" fill="#6C63FF"/>
<path d="M1476 398C1468.31 398 1460.93 394.945 1455.49 389.506C1450.06 384.068 1447 376.691 1447 369C1447 361.309 1450.06 353.932 1455.49 348.494C1460.93 343.055 1468.31 340 1476 340C1476.27 340 1476.52 340.105 1476.71 340.293C1476.89 340.48 1477 340.735 1477 341C1477 341.265 1476.89 341.52 1476.71 341.707C1476.52 341.895 1476.27 342 1476 342C1470.66 342 1465.44 343.584 1461 346.551C1456.56 349.517 1453.1 353.734 1451.06 358.668C1449.01 363.601 1448.48 369.03 1449.52 374.268C1450.56 379.505 1453.13 384.316 1456.91 388.092C1460.68 391.868 1465.5 394.439 1470.73 395.481C1475.97 396.523 1481.4 395.988 1486.33 393.945C1491.27 391.901 1495.48 388.44 1498.45 384C1501.42 379.56 1503 374.34 1503 369C1503 368.735 1503.11 368.48 1503.29 368.293C1503.48 368.105 1503.74 368 1504 368C1504.27 368 1504.52 368.105 1504.71 368.293C1504.9 368.48 1505 368.735 1505 369C1504.99 376.689 1501.93 384.06 1496.5 389.497C1491.06 394.933 1483.69 397.991 1476 398Z" fill="#3F3D56"/>
<path d="M1896.78 743.034H1896.77C1896.51 743.033 1896.25 742.976 1896.02 742.868C1895.78 742.761 1895.57 742.604 1895.4 742.409L1885.71 731.272C1885.55 731.091 1885.43 730.882 1885.35 730.655C1885.27 730.428 1885.24 730.188 1885.26 729.949C1885.28 729.711 1885.34 729.477 1885.45 729.263C1885.55 729.048 1885.7 728.857 1885.88 728.7C1886.06 728.543 1886.27 728.422 1886.5 728.346C1886.72 728.27 1886.96 728.24 1887.2 728.256C1887.44 728.273 1887.68 728.337 1887.89 728.444C1888.1 728.551 1888.29 728.699 1888.45 728.88L1896.79 738.459L1921.84 710.362C1922 710.183 1922.19 710.038 1922.41 709.934C1922.62 709.83 1922.85 709.769 1923.09 709.755C1923.33 709.741 1923.57 709.775 1923.8 709.854C1924.02 709.932 1924.23 710.054 1924.41 710.214C1924.59 710.373 1924.73 710.565 1924.84 710.781C1924.94 710.996 1925 711.229 1925.02 711.468C1925.03 711.707 1925 711.946 1924.92 712.172C1924.84 712.397 1924.72 712.605 1924.56 712.784L1898.14 742.425C1897.97 742.617 1897.76 742.77 1897.52 742.875C1897.29 742.98 1897.03 743.034 1896.78 743.034Z" fill="#6C63FF"/>
<path d="M1897 762.517C1889.31 762.517 1881.93 759.462 1876.49 754.023C1871.06 748.585 1868 741.208 1868 733.517C1868 725.826 1871.06 718.45 1876.49 713.011C1881.93 707.572 1889.31 704.517 1897 704.517C1897.27 704.517 1897.52 704.622 1897.71 704.81C1897.89 704.998 1898 705.252 1898 705.517C1898 705.782 1897.89 706.037 1897.71 706.224C1897.52 706.412 1897.27 706.517 1897 706.517C1891.66 706.517 1886.44 708.101 1882 711.067C1877.56 714.034 1874.1 718.251 1872.06 723.185C1870.01 728.118 1869.48 733.547 1870.52 738.785C1871.56 744.022 1874.13 748.833 1877.91 752.609C1881.68 756.385 1886.5 758.957 1891.73 759.998C1896.97 761.04 1902.4 760.505 1907.33 758.462C1912.27 756.418 1916.48 752.958 1919.45 748.517C1922.42 744.077 1924 738.857 1924 733.517C1924 733.252 1924.11 732.998 1924.29 732.81C1924.48 732.622 1924.73 732.517 1925 732.517C1925.27 732.517 1925.52 732.622 1925.71 732.81C1925.89 732.998 1926 733.252 1926 733.517C1925.99 741.206 1922.93 748.577 1917.5 754.013C1912.06 759.45 1904.69 762.508 1897 762.517Z" fill="#3F3D56"/>
<path d="M2090.3 718.103C2089.36 716.973 2088.68 715.65 2088.31 714.229C2087.93 712.807 2087.87 711.32 2088.14 709.874C2088.4 708.427 2088.98 707.056 2089.83 705.857C2090.68 704.657 2091.78 703.658 2093.06 702.931L2086.53 667.797L2103.64 675.018L2107.21 707.275C2108.29 709.502 2108.52 712.048 2107.85 714.43C2107.17 716.812 2105.65 718.865 2103.57 720.2C2101.48 721.534 2098.98 722.058 2096.54 721.671C2094.09 721.285 2091.87 720.015 2090.3 718.103Z" fill="#9E616A"/>
<path d="M1931.7 718.103C1932.64 716.973 1933.32 715.65 1933.69 714.229C1934.07 712.807 1934.13 711.32 1933.86 709.874C1933.6 708.427 1933.02 707.056 1932.17 705.857C1931.32 704.657 1930.22 703.658 1928.94 702.931L1935.47 667.797L1918.36 675.018L1914.79 707.275C1913.71 709.502 1913.48 712.048 1914.16 714.43C1914.83 716.812 1916.35 718.865 1918.43 720.2C1920.52 721.534 1923.02 722.058 1925.46 721.671C1927.91 721.285 1930.13 720.015 1931.7 718.103Z" fill="#9E616A"/>
<path d="M1995.35 947.831H1983.09L1977.26 900.543H1995.36L1995.35 947.831Z" fill="#9E616A"/>
<path d="M1998.48 959.715L1958.95 959.714V959.214C1958.95 955.133 1960.57 951.22 1963.46 948.334C1966.34 945.449 1970.26 943.828 1974.34 943.827L1998.48 943.828L1998.48 959.715Z" fill="#2F2E41"/>
<path d="M2046.35 947.831H2034.09L2028.26 900.543H2046.36L2046.35 947.831Z" fill="#9E616A"/>
<path d="M2049.48 959.715L2009.95 959.714V959.214C2009.95 955.133 2011.57 951.22 2014.46 948.334C2017.34 945.449 2021.26 943.828 2025.34 943.827L2049.48 943.828L2049.48 959.715Z" fill="#2F2E41"/>
<path d="M1973.42 662.034L1957.5 679.568L1964.5 810.856L1976.5 936.534H1998.36L2018.5 712.109L2027.47 936.534H2050.9L2078.4 672.755L1973.42 662.034Z" fill="#2F2E41"/>
<path d="M2074.5 509.534L2032 483.034L2026 468.034H1986.27L1982 482.034L1938 509.034L1955.5 585.534L1957.5 679.534C1957.5 679.534 2025.5 720.534 2078.5 674.534L2057 565.034L2074.5 509.534Z" fill="#E4E4E4"/>
<path d="M1951.5 510.534L1938 509.034C1938 509.034 1924.5 519.534 1922.5 542.534C1920.5 565.534 1922.5 609.271 1922.5 609.271L1914.5 694.534L1931.5 695.534L1953.5 610.534L1955.5 571.113L1951.5 510.534Z" fill="#E4E4E4"/>
<path d="M2060.5 510.534L2074 509.034C2074 509.034 2087.5 519.534 2089.5 542.534C2091.5 565.534 2099.5 609.271 2099.5 609.271L2107.5 694.534L2090.5 695.534L2068.5 610.534L2056.5 571.113L2060.5 510.534Z" fill="#E4E4E4"/>
<path d="M2031.59 440.366C2040.27 424.471 2034.43 404.54 2018.54 395.851C2002.64 387.162 1982.71 393.003 1974.02 408.899C1965.33 424.795 1971.17 444.725 1987.07 453.415C2002.97 462.104 2022.9 456.262 2031.59 440.366Z" fill="#9E616A"/>
<path d="M2040.27 425.265C2040.63 423.238 2040.21 421.15 2039.1 419.419C2040.17 417.698 2040.92 415.794 2041.3 413.803C2042.19 407.836 2037.62 405.65 2034.68 401.144C2033.4 399.189 2033.98 398.417 2033.91 396.34C2033.79 393.534 2032.88 390.819 2031.3 388.5C2029.48 385.484 2027.54 382.339 2024.49 380.379C2018.07 376.26 2009.86 378.998 2002.51 377.241C1999.27 376.467 1996.25 374.818 1993.02 373.992C1989.79 373.166 1985.98 373.38 1984.11 375.742C1983.25 376.833 1982.9 378.254 1982.04 379.342C1980.31 381.506 1977.04 381.867 1974.38 382.952C1968.5 385.349 1965.47 391.691 1965.6 397.953C1965.64 399.265 1965.78 400.572 1966.03 401.86C1965.01 404.245 1964.51 406.821 1964.57 409.415C1964.7 415.677 1967.49 421.862 1970.83 427.57C1971.29 425.785 1971.94 424.052 1972.75 422.397C1972.98 421.821 1973.37 421.32 1973.86 420.946C1974.99 420.221 1976.61 420.764 1978.04 420.821C1981.01 420.939 1983.37 418.847 1984.77 416.508C1986.16 414.169 1986.93 411.474 1988.53 409.266C1988.86 408.718 1989.31 408.252 1989.85 407.901C1990.38 407.549 1990.99 407.323 1991.62 407.237C1992.74 407.284 1993.82 407.619 1994.76 408.209C1999.6 410.684 2004.59 413.373 2009.88 413.707C2011.69 413.662 2013.51 413.817 2015.29 414.168C2019.3 415.326 2021.68 419.579 2022.2 423.446C2022.72 427.313 2021.93 431.124 2022.25 434.993C2022.56 438.861 2024.42 443.193 2028.25 444.901C2028.65 445.133 2029.13 445.196 2029.58 445.077C2029.88 444.917 2030.11 444.665 2030.25 444.359L2037.43 431.999C2038.8 429.954 2039.76 427.669 2040.27 425.265Z" fill="#2F2E41"/>
<path d="M2194.32 960.034C2194.32 960.299 2194.21 960.553 2194.03 960.741C2193.84 960.928 2193.58 961.033 2193.32 961.034H1812.32C1812.05 961.034 1811.8 960.929 1811.61 960.741C1811.43 960.554 1811.32 960.299 1811.32 960.034C1811.32 959.769 1811.43 959.515 1811.61 959.327C1811.8 959.14 1812.05 959.034 1812.32 959.034H2193.32C2193.59 959.035 2193.84 959.141 2194.03 959.328C2194.21 959.515 2194.32 959.769 2194.32 960.034Z" fill="#CACACA"/>
<path d="M1793.16 423.817H1448.16V425.817H1793.16V423.817Z" fill="#E4E4E4"/>
<path d="M1793.16 535.817H1448.16V537.817H1793.16V535.817Z" fill="#E4E4E4"/>
<path d="M1793.16 647.817H1448.16V649.817H1793.16V647.817Z" fill="#E4E4E4"/>
</g>
<g clip-path="url(#clip2_9_124)">
<path d="M807.076 58H754.676C749.639 58.0046 744.808 60.0078 741.246 63.57C737.684 67.1322 735.681 71.9623 735.676 77V133.81C735.006 133.77 734.336 133.71 733.676 133.63C721.262 132.324 709.46 127.576 699.6 119.921C689.74 112.266 682.215 102.009 677.872 90.3065C673.53 78.6036 672.543 65.9204 675.023 53.6868C677.504 41.4532 683.352 30.1557 691.909 21.068C700.467 11.9804 711.393 5.46408 723.455 2.25374C735.518 -0.9566 748.237 -0.733287 760.18 2.89852C772.122 6.53032 782.813 13.4262 791.046 22.8086C799.279 32.191 804.727 43.6869 806.776 56C806.886 56.66 806.986 57.33 807.076 58Z" fill="#F2F2F2"/>
<path d="M1425.68 56H754.676C749.109 56.0061 743.771 58.2205 739.834 62.1575C735.897 66.0944 733.682 71.4323 733.676 77V431C733.682 436.568 735.897 441.906 739.834 445.842C743.771 449.779 749.109 451.994 754.676 452H1425.68C1431.24 451.994 1436.58 449.779 1440.52 445.842C1444.46 441.906 1446.67 436.568 1446.68 431V77C1446.67 71.4323 1444.46 66.0944 1440.52 62.1575C1436.58 58.2205 1431.24 56.0061 1425.68 56ZM1444.68 431C1444.67 436.038 1442.67 440.868 1439.11 444.43C1435.54 447.992 1430.71 449.995 1425.68 450H754.676C749.639 449.995 744.808 447.992 741.246 444.43C737.684 440.868 735.681 436.038 735.676 431V77C735.681 71.9623 737.684 67.1322 741.246 63.57C744.808 60.0078 749.639 58.0046 754.676 58H1425.68C1430.71 58.0046 1435.54 60.0078 1439.11 63.57C1442.67 67.1322 1444.67 71.9623 1444.68 77V431Z" fill="#3F3D56"/>
<path d="M1392.68 113.37H787.676C787.411 113.37 787.157 113.264 786.969 113.077C786.782 112.889 786.676 112.635 786.676 112.37C786.676 112.104 786.782 111.85 786.969 111.663C787.157 111.475 787.411 111.37 787.676 111.37H1392.68C1392.94 111.37 1393.2 111.475 1393.38 111.663C1393.57 111.85 1393.68 112.104 1393.68 112.37C1393.68 112.635 1393.57 112.889 1393.38 113.077C1393.2 113.264 1392.94 113.37 1392.68 113.37Z" fill="#3F3D56"/>
<path d="M958.676 409C958.411 409 958.157 408.895 957.969 408.707C957.782 408.52 957.676 408.265 957.676 408V79C957.676 78.7348 957.782 78.4804 957.969 78.2929C958.157 78.1054 958.411 78 958.676 78C958.941 78 959.196 78.1054 959.383 78.2929C959.571 78.4804 959.676 78.7348 959.676 79V408C959.676 408.265 959.571 408.52 959.383 408.707C959.196 408.895 958.941 409 958.676 409Z" fill="#3F3D56"/>
<path d="M1109.68 409C1109.41 409 1109.16 408.895 1108.97 408.707C1108.78 408.52 1108.68 408.265 1108.68 408V79C1108.68 78.7348 1108.78 78.4804 1108.97 78.2929C1109.16 78.1054 1109.41 78 1109.68 78C1109.94 78 1110.2 78.1054 1110.38 78.2929C1110.57 78.4804 1110.68 78.7348 1110.68 79V408C1110.68 408.265 1110.57 408.52 1110.38 408.707C1110.2 408.895 1109.94 409 1109.68 409Z" fill="#3F3D56"/>
<path d="M1260.68 409C1260.41 409 1260.16 408.895 1259.97 408.707C1259.78 408.52 1259.68 408.265 1259.68 408V79C1259.68 78.7348 1259.78 78.4804 1259.97 78.2929C1260.16 78.1054 1260.41 78 1260.68 78C1260.94 78 1261.2 78.1054 1261.38 78.2929C1261.57 78.4804 1261.68 78.7348 1261.68 79V408C1261.68 408.265 1261.57 408.52 1261.38 408.707C1261.2 408.895 1260.94 409 1260.68 409Z" fill="#3F3D56"/>
<path d="M861.592 216.587H825.052C823.859 216.586 822.715 216.112 821.871 215.268C821.028 214.424 820.553 213.28 820.552 212.087V168.968C820.553 167.775 821.028 166.631 821.871 165.787C822.715 164.944 823.859 164.469 825.052 164.468H861.592C862.785 164.469 863.929 164.944 864.772 165.787C865.616 166.631 866.091 167.775 866.092 168.968V212.087C866.091 213.28 865.616 214.424 864.772 215.268C863.929 216.112 862.785 216.586 861.592 216.587Z" fill="#6C63FF"/>
<path d="M913.592 339.587H877.052C875.859 339.586 874.715 339.112 873.871 338.268C873.028 337.424 872.553 336.28 872.552 335.087V291.968C872.553 290.775 873.028 289.631 873.871 288.787C874.715 287.944 875.859 287.469 877.052 287.468H913.592C914.785 287.469 915.929 287.944 916.772 288.787C917.616 289.631 918.091 290.775 918.092 291.968V335.087C918.091 336.28 917.616 337.424 916.772 338.268C915.929 339.112 914.785 339.586 913.592 339.587Z" fill="#6C63FF"/>
<path d="M1031.59 242.587H995.052C993.859 242.586 992.715 242.111 991.872 241.268C991.028 240.424 990.553 239.28 990.552 238.087V194.968C990.553 193.775 991.028 192.631 991.872 191.787C992.715 190.944 993.859 190.469 995.052 190.468H1031.59C1032.79 190.469 1033.93 190.944 1034.77 191.787C1035.62 192.631 1036.09 193.775 1036.09 194.968V238.087C1036.09 239.28 1035.62 240.424 1034.77 241.268C1033.93 242.112 1032.79 242.586 1031.59 242.587Z" fill="#6C63FF"/>
<path d="M1184.59 195.587H1148.05C1146.86 195.586 1145.72 195.111 1144.87 194.268C1144.03 193.424 1143.55 192.28 1143.55 191.087V147.968C1143.55 146.775 1144.03 145.631 1144.87 144.787C1145.72 143.944 1146.86 143.469 1148.05 143.468H1184.59C1185.79 143.469 1186.93 143.944 1187.77 144.787C1188.62 145.631 1189.09 146.775 1189.09 147.968V191.087C1189.09 192.28 1188.62 193.424 1187.77 194.268C1186.93 195.112 1185.79 195.586 1184.59 195.587Z" fill="#6C63FF"/>
<path d="M1325.59 195.587H1289.05C1287.86 195.586 1286.72 195.111 1285.87 194.268C1285.03 193.424 1284.55 192.28 1284.55 191.087V147.968C1284.55 146.775 1285.03 145.631 1285.87 144.787C1286.72 143.944 1287.86 143.469 1289.05 143.468H1325.59C1326.79 143.469 1327.93 143.944 1328.77 144.787C1329.62 145.631 1330.09 146.775 1330.09 147.968V191.087C1330.09 192.28 1329.62 193.424 1328.77 194.268C1327.93 195.112 1326.79 195.586 1325.59 195.587Z" fill="#6C63FF"/>
<path d="M1390.59 207.587H1354.05C1352.86 207.586 1351.72 207.111 1350.87 206.268C1350.03 205.424 1349.55 204.28 1349.55 203.087V159.968C1349.55 158.775 1350.03 157.631 1350.87 156.787C1351.72 155.944 1352.86 155.469 1354.05 155.468H1390.59C1391.79 155.469 1392.93 155.944 1393.77 156.787C1394.62 157.631 1395.09 158.775 1395.09 159.968V203.087C1395.09 204.28 1394.62 205.424 1393.77 206.268C1392.93 207.112 1391.79 207.586 1390.59 207.587Z" fill="#E6E6E6"/>
<path d="M1361.59 284.587H1325.05C1323.86 284.586 1322.72 284.111 1321.87 283.268C1321.03 282.424 1320.55 281.28 1320.55 280.087V236.968C1320.55 235.775 1321.03 234.631 1321.87 233.787C1322.72 232.944 1323.86 232.469 1325.05 232.468H1361.59C1362.79 232.469 1363.93 232.944 1364.77 233.787C1365.62 234.631 1366.09 235.775 1366.09 236.968V280.087C1366.09 281.28 1365.62 282.424 1364.77 283.268C1363.93 284.112 1362.79 284.586 1361.59 284.587Z" fill="#E6E6E6"/>
<path d="M1237.59 268.587H1201.05C1199.86 268.586 1198.72 268.111 1197.87 267.268C1197.03 266.424 1196.55 265.28 1196.55 264.087V220.968C1196.55 219.775 1197.03 218.631 1197.87 217.787C1198.72 216.944 1199.86 216.469 1201.05 216.468H1237.59C1238.79 216.469 1239.93 216.944 1240.77 217.787C1241.62 218.631 1242.09 219.775 1242.09 220.968V264.087C1242.09 265.28 1241.62 266.424 1240.77 267.268C1239.93 268.112 1238.79 268.586 1237.59 268.587Z" fill="#FF6584"/>
<path d="M1166.59 284.587H1130.05C1128.86 284.586 1127.72 284.111 1126.87 283.268C1126.03 282.424 1125.55 281.28 1125.55 280.087V236.968C1125.55 235.775 1126.03 234.631 1126.87 233.787C1127.72 232.944 1128.86 232.469 1130.05 232.468H1166.59C1167.79 232.469 1168.93 232.944 1169.77 233.787C1170.62 234.631 1171.09 235.775 1171.09 236.968V280.087C1171.09 281.28 1170.62 282.424 1169.77 283.268C1168.93 284.112 1167.79 284.586 1166.59 284.587Z" fill="#E6E6E6"/>
<path d="M1013.59 352.587H977.052C975.859 352.586 974.715 352.111 973.872 351.268C973.028 350.424 972.553 349.28 972.552 348.087V304.968C972.553 303.775 973.028 302.631 973.872 301.787C974.715 300.944 975.859 300.469 977.052 300.468H1013.59C1014.79 300.469 1015.93 300.944 1016.77 301.787C1017.62 302.631 1018.09 303.775 1018.09 304.968V348.087C1018.09 349.28 1017.62 350.424 1016.77 351.268C1015.93 352.112 1014.79 352.586 1013.59 352.587Z" fill="#E6E6E6"/>
<path d="M828.592 295.587H792.052C790.859 295.586 789.715 295.112 788.871 294.268C788.028 293.424 787.553 292.28 787.552 291.087V247.968C787.553 246.775 788.028 245.631 788.871 244.787C789.715 243.944 790.859 243.469 792.052 243.468H828.592C829.785 243.469 830.929 243.944 831.772 244.787C832.616 245.631 833.091 246.775 833.092 247.968V291.087C833.091 292.28 832.616 293.424 831.772 294.268C830.929 295.112 829.785 295.586 828.592 295.587Z" fill="#FF6584"/>
<path d="M931.592 216.587H895.052C893.859 216.586 892.715 216.112 891.871 215.268C891.028 214.424 890.553 213.28 890.552 212.087V168.968C890.553 167.775 891.028 166.631 891.871 165.787C892.715 164.944 893.859 164.469 895.052 164.468H931.592C932.785 164.469 933.929 164.944 934.772 165.787C935.616 166.631 936.091 167.775 936.092 168.968V212.087C936.091 213.28 935.616 214.424 934.772 215.268C933.929 216.112 932.785 216.586 931.592 216.587Z" fill="#E6E6E6"/>
<path d="M901.676 97H844.676C843.615 97 842.598 96.5786 841.848 95.8284C841.098 95.0783 840.676 94.0609 840.676 93C840.676 91.9391 841.098 90.9217 841.848 90.1716C842.598 89.4214 843.615 89 844.676 89H901.676C902.737 89 903.755 89.4214 904.505 90.1716C905.255 90.9217 905.676 91.9391 905.676 93C905.676 94.0609 905.255 95.0783 904.505 95.8284C903.755 96.5786 902.737 97 901.676 97Z" fill="#CCCCCC"/>
<path d="M1062.68 97H1005.68C1004.62 97 1003.6 96.5786 1002.85 95.8284C1002.1 95.0783 1001.68 94.0609 1001.68 93C1001.68 91.9391 1002.1 90.9217 1002.85 90.1716C1003.6 89.4214 1004.62 89 1005.68 89H1062.68C1063.74 89 1064.75 89.4214 1065.5 90.1716C1066.25 90.9217 1066.68 91.9391 1066.68 93C1066.68 94.0609 1066.25 95.0783 1065.5 95.8284C1064.75 96.5786 1063.74 97 1062.68 97Z" fill="#CCCCCC"/>
<path d="M1213.68 97H1156.68C1155.62 97 1154.6 96.5786 1153.85 95.8284C1153.1 95.0783 1152.68 94.0609 1152.68 93C1152.68 91.9391 1153.1 90.9217 1153.85 90.1716C1154.6 89.4214 1155.62 89 1156.68 89H1213.68C1214.74 89 1215.75 89.4214 1216.5 90.1716C1217.25 90.9217 1217.68 91.9391 1217.68 93C1217.68 94.0609 1217.25 95.0783 1216.5 95.8284C1215.75 96.5786 1214.74 97 1213.68 97Z" fill="#CCCCCC"/>
<path d="M1354.68 97H1297.68C1296.62 97 1295.6 96.5786 1294.85 95.8284C1294.1 95.0783 1293.68 94.0609 1293.68 93C1293.68 91.9391 1294.1 90.9217 1294.85 90.1716C1295.6 89.4214 1296.62 89 1297.68 89H1354.68C1355.74 89 1356.75 89.4214 1357.5 90.1716C1358.25 90.9217 1358.68 91.9391 1358.68 93C1358.68 94.0609 1358.25 95.0783 1357.5 95.8284C1356.75 96.5786 1355.74 97 1354.68 97Z" fill="#CCCCCC"/>
<path d="M774.009 389.891C772.546 389.748 771.132 389.286 769.867 388.537C768.602 387.788 767.517 386.771 766.687 385.557C765.858 384.344 765.304 382.963 765.066 381.512C764.828 380.061 764.911 378.576 765.309 377.161L739.676 353.3L753.229 349.862L778.435 370.305C780.768 371.132 782.717 372.785 783.912 374.952C785.108 377.119 785.467 379.65 784.921 382.064C784.376 384.478 782.964 386.609 780.953 388.051C778.941 389.494 776.471 390.149 774.009 389.891Z" fill="#FFB8B8"/>
<path d="M809.404 566.253H821.664L827.496 518.965H809.402L809.404 566.253Z" fill="#FFB8B8"/>
<path d="M845.308 577.635L806.777 577.637L806.777 562.75L830.421 562.749C834.369 562.749 838.155 564.317 840.947 567.109C843.739 569.901 845.308 573.687 845.308 577.635Z" fill="#2F2E41"/>
<path d="M725.345 557.401L737.193 560.555L754.994 516.359L737.509 511.705L725.345 557.401Z" fill="#FFB8B8"/>
<path d="M757.113 577.639L719.879 567.729L723.708 553.343L746.556 559.424C750.372 560.44 753.627 562.929 755.607 566.345C757.587 569.761 758.129 573.824 757.113 577.639Z" fill="#2F2E41"/>
<path d="M824.961 557.3H806.254C805.072 557.304 803.932 556.866 803.057 556.071C802.182 555.277 801.637 554.183 801.528 553.007L790.171 435.075C790.088 434.21 789.707 433.401 789.093 432.786C788.479 432.171 787.67 431.789 786.805 431.704C785.94 431.62 785.073 431.838 784.351 432.323C783.63 432.808 783.099 433.528 782.85 434.36L749.877 544.56C749.528 545.731 748.74 546.722 747.679 547.327C746.617 547.932 745.362 548.103 744.177 547.806L726.774 543.454C726.166 543.302 725.595 543.032 725.092 542.658C724.59 542.285 724.166 541.816 723.846 541.278C723.525 540.74 723.315 540.144 723.225 539.524C723.136 538.905 723.171 538.273 723.326 537.667C723.611 536.557 751.737 426.639 751.983 425.509C758.355 378.541 765.98 365.955 770.076 359.194C770.415 358.635 770.726 358.12 771.007 357.634C771.358 357.025 773.519 350.989 774.89 347.069C775.068 346.432 775.377 345.838 775.796 345.325C776.215 344.813 776.736 344.393 777.325 344.092C794.536 335.29 814.673 341.383 820.435 343.46C821.39 343.796 822.21 344.433 822.773 345.275C840.057 371.347 831.575 522.767 829.699 552.856C829.621 554.06 829.088 555.189 828.208 556.014C827.328 556.839 826.167 557.299 824.961 557.3Z" fill="#2F2E41"/>
<path d="M776.684 258.585C790.249 258.585 801.245 247.589 801.245 234.024C801.245 220.459 790.249 209.463 776.684 209.463C763.119 209.463 752.123 220.459 752.123 234.024C752.123 247.589 763.119 258.585 776.684 258.585Z" fill="#FFB8B8"/>
<path d="M774.082 351.838L773.905 351.667C773.574 351.347 740.85 319.287 745.085 289.643C746.896 276.963 757.155 268.861 774.752 266.212C781.217 265.252 787.812 266.657 793.323 270.17C798.835 273.683 802.893 279.067 804.752 285.333L822.152 344.817L774.082 351.838Z" fill="#CCCCCC"/>
<path d="M757.333 374.641L734.014 351.47C732.42 349.876 731.262 347.9 730.653 345.729C730.044 343.559 730.003 341.269 730.535 339.078L741.823 293.159C742.161 291.783 742.778 290.491 743.636 289.363C744.493 288.235 745.573 287.296 746.809 286.602C748.044 285.908 749.409 285.475 750.819 285.33C752.228 285.185 753.652 285.331 755.003 285.759C757.578 286.589 759.729 288.388 760.999 290.776C762.27 293.164 762.562 295.954 761.812 298.553L749.928 338.949L769.146 359.586L757.333 374.641Z" fill="#CCCCCC"/>
<path d="M882.404 295.562C881.788 296.897 880.886 298.08 879.763 299.028C878.64 299.977 877.322 300.667 875.903 301.052C874.484 301.436 872.998 301.504 871.55 301.252C870.101 300.999 868.726 300.432 867.521 299.591L836.391 315.726L837.767 302.02L865.364 284.941C866.912 283.009 869.114 281.713 871.554 281.297C873.994 280.88 876.501 281.374 878.602 282.683C880.702 283.992 882.25 286.026 882.95 288.4C883.651 290.774 883.457 293.322 882.404 295.562Z" fill="#FFB8B8"/>
<path d="M864.121 305.765L833.775 318.878C831.755 319.744 829.546 320.076 827.361 319.841C825.176 319.607 823.088 318.814 821.298 317.54L782.709 289.891C781.557 289.065 780.587 288.013 779.859 286.797C779.13 285.582 778.659 284.23 778.474 282.826C778.289 281.421 778.394 279.993 778.783 278.631C779.172 277.268 779.837 276 780.735 274.905C782.463 272.822 784.932 271.494 787.622 271.202C790.312 270.909 793.009 271.675 795.144 273.337L828.232 299.379L854.533 289.204L864.121 305.765Z" fill="#CCCCCC"/>
<path d="M780.756 241.895C783.786 238.098 789.447 237.894 793.609 235.39C799.061 232.109 801.315 224.779 799.558 218.664C797.801 212.549 792.62 207.783 786.679 205.503C780.739 203.224 774.13 203.196 767.863 204.298C758.533 205.938 749.347 210.293 743.657 217.867C737.966 225.441 736.518 236.533 741.675 244.479C744.046 248.132 747.705 251.146 748.651 255.396C749.893 260.976 745.979 266.357 741.787 270.242C737.01 274.669 731.53 278.376 727.345 283.365C723.16 288.355 720.369 295.171 722.279 301.397C723.879 306.614 728.535 310.457 733.64 312.381C738.746 314.306 744.306 314.584 749.761 314.691C755.059 314.794 760.685 314.666 765.147 311.809C769.925 308.752 772.475 302.951 772.664 297.282C772.852 291.614 770.958 286.06 768.419 280.988C766.906 277.965 765.146 275.035 764.141 271.808C763.135 268.58 762.961 264.917 764.571 261.945C766.264 258.82 769.689 256.936 773.176 256.251C773.357 256.215 773.548 256.183 773.749 256.155C774.741 256.026 775.697 255.698 776.558 255.189C777.42 254.681 778.169 254.002 778.761 253.196C779.353 252.39 779.775 251.471 780.003 250.497C780.23 249.523 780.257 248.512 780.082 247.527C779.685 245.313 779.719 243.193 780.756 241.895Z" fill="#2F2E41"/>
<path d="M1108.23 567.3H1095.97L1090.14 520.012L1108.23 520.013L1108.23 567.3Z" fill="#A0616A"/>
<path d="M1087.21 563.797H1110.86V578.684H1072.33C1072.33 576.729 1072.71 574.793 1073.46 572.987C1074.21 571.181 1075.3 569.54 1076.69 568.157C1078.07 566.775 1079.71 565.678 1081.52 564.93C1083.32 564.182 1085.26 563.797 1087.21 563.797Z" fill="#2F2E41"/>
<path d="M1197.18 553.413L1186.03 558.506L1161.08 517.917L1177.54 510.399L1197.18 553.413Z" fill="#A0616A"/>
<path d="M1176.61 558.958L1198.12 549.135L1204.3 562.676L1169.26 578.685C1168.44 576.906 1167.99 574.985 1167.92 573.032C1167.85 571.078 1168.17 569.13 1168.85 567.298C1169.53 565.466 1170.57 563.787 1171.9 562.356C1173.23 560.925 1174.83 559.771 1176.61 558.958Z" fill="#2F2E41"/>
<path d="M1161.48 407.857C1162.66 406.973 1163.62 405.842 1164.31 404.544C1165 403.246 1165.4 401.813 1165.48 400.345C1165.55 398.877 1165.31 397.41 1164.76 396.047C1164.2 394.685 1163.36 393.46 1162.28 392.458L1176.69 359.759L1158.39 362.861L1147.51 393.438C1145.95 395.358 1145.14 397.784 1145.25 400.257C1145.36 402.73 1146.37 405.077 1148.09 406.854C1149.81 408.632 1152.13 409.716 1154.6 409.9C1157.06 410.085 1159.51 409.358 1161.48 407.857Z" fill="#A0616A"/>
<path d="M1107.45 554.831H1095.74C1094.6 554.827 1093.51 554.396 1092.68 553.622C1091.84 552.849 1091.33 551.79 1091.25 550.658L1084.86 380.099C1084.81 379.445 1084.91 378.789 1085.14 378.177C1085.37 377.564 1085.74 377.009 1086.21 376.552C1086.68 376.094 1087.24 375.744 1087.86 375.527C1088.48 375.31 1089.13 375.231 1089.79 375.294L1157.52 382.488C1158.62 382.595 1159.64 383.102 1160.39 383.912C1161.14 384.722 1161.56 385.778 1161.58 386.881L1163 462.117C1163.01 462.525 1163.09 462.929 1163.24 463.31L1191.02 535.363C1191.24 535.919 1191.34 536.513 1191.32 537.109C1191.3 537.706 1191.17 538.293 1190.92 538.836C1190.68 539.38 1190.32 539.869 1189.89 540.275C1189.45 540.682 1188.94 540.997 1188.38 541.203L1176.51 545.576C1175.48 545.956 1174.34 545.945 1173.32 545.547C1172.3 545.148 1171.46 544.389 1170.95 543.412L1136.82 477.043C1136.63 476.682 1136.5 476.298 1136.42 475.901L1130.58 447.807C1130.42 446.992 1129.96 446.265 1129.3 445.754C1128.65 445.244 1127.83 444.984 1127 445.022C1126.17 445.059 1125.38 445.392 1124.77 445.96C1124.16 446.527 1123.78 447.293 1123.68 448.119L1111.92 550.843C1111.79 551.941 1111.27 552.954 1110.44 553.69C1109.62 554.425 1108.55 554.832 1107.45 554.831Z" fill="#2F2E41"/>
<path d="M1113.28 246.739C1126.84 246.739 1137.84 235.743 1137.84 222.178C1137.84 208.613 1126.84 197.617 1113.28 197.617C1099.71 197.617 1088.72 208.613 1088.72 222.178C1088.72 235.743 1099.71 246.739 1113.28 246.739Z" fill="#A0616A"/>
<path d="M1130.12 395.694C1113.47 395.511 1097.21 390.586 1083.25 381.496L1083.01 381.331L1083.04 381.041L1092.43 271.626C1092.75 267.913 1094.41 264.444 1097.1 261.859C1099.78 259.274 1103.31 257.748 1107.03 257.564C1119.21 257.004 1135.56 257.71 1144.32 264.23C1157.55 274.085 1163.92 288.924 1161.81 304.943C1157.43 338.162 1162.39 382.972 1162.97 387.972L1163.02 388.333L1162.69 388.484C1152.49 393.229 1141.37 395.69 1130.12 395.694Z" fill="#6C63FF"/>
<path d="M1162.86 388.158C1162.17 388.156 1161.48 388.012 1160.85 387.732C1160.22 387.453 1159.65 387.046 1159.18 386.536L1153.81 380.674C1153.23 380.037 1152.82 379.262 1152.62 378.422C1152.43 377.582 1152.46 376.707 1152.7 375.879L1164.95 334.415L1146.31 295.272C1145.44 293.44 1145.22 291.364 1145.7 289.393C1146.13 287.662 1147.07 286.101 1148.39 284.915C1149.72 283.728 1151.38 282.972 1153.15 282.747C1154.91 282.521 1156.71 282.836 1158.29 283.65C1159.87 284.465 1161.17 285.74 1162.02 287.309L1187.31 328.351C1188.34 330.016 1188.94 331.907 1189.07 333.86C1189.19 335.812 1188.84 337.766 1188.03 339.549L1167.42 385.214C1167.08 385.969 1166.56 386.627 1165.9 387.13C1165.25 387.633 1164.47 387.964 1163.66 388.094C1163.39 388.136 1163.13 388.157 1162.86 388.158Z" fill="#6C63FF"/>
<path d="M989.738 308.953C990.917 309.83 992.275 310.438 993.715 310.734C995.155 311.03 996.642 311.006 998.072 310.665C999.502 310.324 1000.84 309.674 1001.99 308.76C1003.14 307.846 1004.08 306.69 1004.74 305.375L1040.17 309.971L1032.03 293.283L999.626 291.477C997.343 290.52 994.789 290.434 992.447 291.235C990.105 292.036 988.139 293.668 986.92 295.823C985.701 297.977 985.315 300.503 985.834 302.923C986.353 305.343 987.742 307.488 989.738 308.953Z" fill="#A0616A"/>
<path d="M1067.85 318.067C1067.23 318.067 1066.62 318.024 1066 317.939L1010.25 310.207C1009.34 310.082 1008.48 309.732 1007.73 309.189C1006.99 308.646 1006.4 307.926 1006 307.096C1005.88 306.828 1005.77 306.551 1005.69 306.267C1005.47 305.528 1005.41 304.753 1005.51 303.991C1005.61 303.228 1005.86 302.494 1006.26 301.835L1010.87 294.186C1011.37 293.369 1012.07 292.692 1012.9 292.222C1013.73 291.752 1014.67 291.503 1015.63 291.5H1015.64L1064.23 291.556L1100.53 259.039C1102.22 257.529 1104.37 256.647 1106.63 256.539C1108.62 256.447 1110.59 256.959 1112.28 258.008C1113.97 259.057 1115.3 260.593 1116.1 262.414C1116.89 264.235 1117.12 266.256 1116.75 268.209C1116.38 270.162 1115.42 271.956 1114.01 273.355L1077.79 313.633C1076.54 315.028 1075.01 316.144 1073.29 316.908C1071.58 317.672 1069.72 318.067 1067.85 318.067Z" fill="#6C63FF"/>
<path d="M1116.07 244.028C1118.32 238.833 1120.22 231.915 1115.91 228.243C1113.41 226.112 1109.82 226.108 1106.54 225.843C1097.33 225.096 1087.84 220.855 1083.33 212.78C1078.83 204.704 1081.34 192.695 1089.84 189.052C1095.57 186.596 1102.14 188.269 1108.14 189.969L1126.14 195.075C1131.49 196.592 1137.11 198.265 1140.96 202.277C1147.11 208.674 1146.65 219.488 1141.77 226.895C1136.89 234.301 1129.54 242.025 1121.13 244.837L1116.07 244.028Z" fill="#2F2E41"/>
<path d="M1364.48 579.01H626.191C626.034 579.01 625.879 578.98 625.734 578.92C625.589 578.86 625.457 578.773 625.347 578.662C625.236 578.551 625.148 578.42 625.088 578.275C625.028 578.131 624.997 577.976 624.997 577.819C624.997 577.662 625.028 577.507 625.088 577.362C625.148 577.218 625.236 577.086 625.347 576.976C625.457 576.865 625.589 576.777 625.734 576.718C625.879 576.658 626.034 576.628 626.191 576.628H1364.48C1364.64 576.628 1364.8 576.658 1364.94 576.718C1365.09 576.777 1365.22 576.865 1365.33 576.976C1365.44 577.086 1365.53 577.218 1365.59 577.362C1365.65 577.507 1365.68 577.662 1365.68 577.819C1365.68 577.976 1365.65 578.131 1365.59 578.275C1365.53 578.42 1365.44 578.551 1365.33 578.662C1365.22 578.773 1365.09 578.86 1364.94 578.92C1364.8 578.98 1364.64 579.01 1364.48 579.01Z" fill="#3F3D56"/>
</g>
<defs>
<clipPath id="clip0_9_124">
<rect width="732.853" height="614.572" fill="white" transform="translate(0 346)"/>
</clipPath>
<clipPath id="clip1_9_124">
<rect width="747.32" height="621.034" fill="white" transform="translate(1447 340)"/>
</clipPath>
<clipPath id="clip2_9_124">
<rect width="821.676" height="579.01" fill="white" transform="translate(625)"/>
</clipPath>
</defs>
</svg>
